<?xml version="1.0" encoding="UTF-8"?>
<svg width="700pt" height="700pt" version="1.1" viewBox="0 0 700 700" xmlns="http://www.w3.org/2000/svg" xmlns:xlink="http://www.w3.org/1999/xlink">
 <defs>
  <symbol id="d" overflow="visible">
   <path d="m28.375-29.047v-18.219h10.938v47.266h-10.938v-4.9219c-1.5 2.0117-3.1523 3.4805-4.9531 4.4062-1.8047 0.92578-3.8867 1.3906-6.25 1.3906-4.1992 0-7.6484-1.6602-10.344-4.9844-2.6875-3.332-4.0312-7.625-4.0312-12.875 0-5.2383 1.3438-9.5234 4.0312-12.859 2.6953-3.332 6.1445-5 10.344-5 2.3438 0 4.4219 0.47656 6.2344 1.4219 1.8125 0.9375 3.4688 2.3984 4.9688 4.375zm-7.1719 22.031c2.332 0 4.1094-0.84766 5.3281-2.5469 1.2266-1.707 1.8438-4.1797 1.8438-7.4219 0-3.2383-0.61719-5.707-1.8438-7.4062-1.2188-1.707-2.9961-2.5625-5.3281-2.5625-2.3125 0-4.0859 0.85547-5.3125 2.5625-1.2188 1.6992-1.8281 4.168-1.8281 7.4062 0 3.2422 0.60938 5.7148 1.8281 7.4219 1.2266 1.6992 3 2.5469 5.3125 2.5469z"/>
  </symbol>
  <symbol id="c" overflow="visible">
   <path d="m23.328-7.0156c2.332 0 4.1094-0.84766 5.3281-2.5469 1.2266-1.707 1.8438-4.1797 1.8438-7.4219 0-3.2383-0.61719-5.707-1.8438-7.4062-1.2188-1.707-2.9961-2.5625-5.3281-2.5625-2.3242 0-4.1094 0.85938-5.3594 2.5781-1.25 1.7109-1.875 4.1719-1.875 7.3906s0.625 5.6875 1.875 7.4062c1.25 1.7109 3.0352 2.5625 5.3594 2.5625zm-7.2344-22.031c1.5-1.9766 3.1602-3.4375 4.9844-4.375 1.8203-0.94531 3.9219-1.4219 6.2969-1.4219 4.1875 0 7.6289 1.668 10.328 5 2.6953 3.3359 4.0469 7.6211 4.0469 12.859 0 5.25-1.3516 9.543-4.0469 12.875-2.6992 3.3242-6.1406 4.9844-10.328 4.9844-2.375 0-4.4766-0.46875-6.2969-1.4062-1.8242-0.9375-3.4844-2.3984-4.9844-4.3906v4.9219h-10.875v-47.266h10.875z"/>
  </symbol>
  <symbol id="b" overflow="visible">
   <path d="m5.2188-34.031h10.875v34.031h-10.875zm0-13.234h10.875v8.8594h-10.875z"/>
  </symbol>
  <symbol id="a" overflow="visible">
   <path d="m5.2188-47.266h10.875v25.719l12.531-12.484h12.625l-16.609 15.625 17.922 18.406h-13.188l-13.281-14.188v14.188h-10.875z"/>
  </symbol>
 </defs>
 <g>
  <path d="m466.33 185.61c0-55.379-33.664-79.918-64.773-90.883 0.22266-1.9414 0.60938-3.8438 0.60938-5.8359 0-28.758-23.406-52.141-52.156-52.141-28.746 0-52.156 23.395-52.156 52.141 0 1.9922 0.35938 3.8945 0.58594 5.8359-31.109 10.965-64.75 35.504-64.75 90.883 0 102.94-38.02 173.88-84.996 203.84v42.086h402.64v-42.086c-47-29.965-85.004-100.89-85.004-203.84zm-116.33-99.754s-11.473-0.29688-27.203 2.4375c0.32422-14.746 12.383-26.656 27.203-26.656s26.879 11.91 27.203 26.668c-15.73-2.75-27.203-2.4492-27.203-2.4492z"/>
  <path d="m350 523.25c39.762 0 72.289-30.762 75.203-69.777l-150.43 0.003906c2.9375 39.012 35.465 69.773 75.227 69.773z"/>
  <use x="302.484375" y="746.667969" xlink:href="#d"/>
  <use x="368.683594" y="746.667969" xlink:href="#c"/>
  <use x="521.050781" y="746.667969" xlink:href="#b"/>
  <use x="586.675781" y="746.667969" xlink:href="#a"/>
 </g>
</svg>
