<?xml version="1.0" encoding="UTF-8"?>
<svg width="700pt" height="700pt" version="1.1" viewBox="0 0 700 700" xmlns="http://www.w3.org/2000/svg">
 <g>
  <path d="m462.49 99.453 72.082 72.082-108.46 108.46 108.46 108.46-76.109 76.109-108.46-108.46-108.46 108.46-76.109-76.109 108.46-108.46-108.46-108.46 76.109-76.109 108.46 108.46 108.46-108.46zm55.977 72.082-60.004-60.004-108.46 108.46-108.46-108.46-60.004 60.004 108.46 108.46-108.46 108.46 60.004 60.004 108.46-108.46 108.46 108.46 60.004-60.004-108.46-108.46z"/>
  <path d="m350 0c154.64 0 280 125.36 280 280s-125.36 280-280 280-280-125.36-280-280 125.36-280 280-280zm0 13.672c147.09 0 266.33 119.24 266.33 266.33s-119.24 266.33-266.33 266.33-266.33-119.24-266.33-266.33 119.24-266.33 266.33-266.33z" fill-rule="evenodd"/>
 </g>
</svg>
